<svg width="90" height="90" viewBox="0 0 90 90" fill="none" xmlns="http://www.w3.org/2000/svg">
<path d="M49 0C55.6274 0 61 5.37258 61 12V78C61 84.6274 55.6274 90 49 90H41C34.3726 90 29 84.6274 29 78V12C29 5.37258 34.3726 0 41 0H49Z" fill="white"/>
<path d="M78 29C84.6274 29 90 34.3726 90 41V49C90 55.6274 84.6274 61 78 61H12C5.37258 61 4.80146e-07 55.6274 0 49V41C2.43668e-07 34.3726 5.37258 29 12 29H78ZM13 33C8.02944 33 4 37.0294 4 42V48C4 52.9706 8.02944 57 13 57H16C22.6274 57 28 51.6274 28 45C28 38.3726 22.6274 33 16 33H13Z" fill="white"/>
</svg>
